<svg width="64" height="64" xmlns="http://www.w3.org/2000/svg" xmlns:xlink="http://www.w3.org/1999/xlink">
  <defs/>
  <g>
    <path stroke="none" fill="#FFFFFF" d="M34 10 L44 10 Q45.75 10 46.9 10.6 49 11.75 49 15 L49 25 38 25 38 19 Q38 16.5 36.25 14.75 35.25 13.75 34 13.35 L34 10 M15 28 L26.1 28 Q26.35 29.85 27.75 31.25 29.5 33 32 33 34.5 33 36.25 31.25 37.65 29.85 37.95 28 L49 28 49 37.5 Q48.8 44.25 44 49 39.25 53.8 32.5 54 L31.5 54 Q24.75 53.8 19.95 49 15.2 44.25 15 37.5 L15 28 M20 10 L30 10 30 13.35 Q28.75 13.75 27.75 14.75 26 16.5 26 19 L26 25 15 25 15 15 Q15 11.75 17.15 10.6 18.25 10 20 10"/>
    <path stroke="none" fill="#E73246" d="M29.9 16.9 Q30.75 16 32 16 33.25 16 34.15 16.9 35 17.75 35 19 L35 27 34.85 28 34.15 29.15 Q33.25 30 32 30 30.75 30 29.9 29.15 29.4 28.65 29.2 28 L29 27 29 19 Q29 17.75 29.9 16.9"/>
    <path stroke="none" fill="#FFFFFF" d="M30.85 44.5 L24.45 37.85 Q24 37.35 24 36.65 24 35.95 24.45 35.5 24.9 35 25.6 35 L38.4 35 Q39.05 35 39.55 35.5 40 35.95 40 36.65 40 37.35 39.55 37.85 L33.15 44.5 Q32.65 45 32 45 31.3 45 30.85 44.5"/>
    <path stroke="none" fill="#FFFFFF" fill-opacity="0" d="M30.85 44.5 Q31.3 45 32 45 32.65 45 33.15 44.5 L39.55 37.85 Q40 37.35 40 36.65 40 35.95 39.55 35.5 39.05 35 38.4 35 L25.6 35 Q24.9 35 24.45 35.5 24 35.95 24 36.65 24 37.35 24.45 37.85 L30.85 44.5 M35.3 46.65 Q33.85 48.05 32 48 30 48 28.7 46.6 L22.3 39.95 22.25 39.85 Q21 38.5 21 36.65 21 34.75 22.25 33.5 23.55 32 25.6 32 L38.4 32 Q40.25 31.95 41.7 33.4 43 34.65 43 36.65 43 38.5 41.8 39.85 L41.7 39.95 35.3 46.6 35.3 46.65"/>
  </g>
</svg>