<svg width="64" height="64" xmlns="http://www.w3.org/2000/svg" xmlns:xlink="http://www.w3.org/1999/xlink">
  <defs/>
  <g>
    <path stroke="none" fill="#FFFFFF" d="M0 -24 Q3.3 -24 5.65 -21.65 8 -19.3 8 -16 L8 -8 16 -8 Q19.3 -8 21.65 -5.65 24 -3.3 24 0 24 3.3 21.65 5.65 19.3 8 16 8 L8 8 8 16 Q8 19.3 5.65 21.65 3.3 24 0 24 -3.3 24 -5.65 21.65 -8 19.3 -8 16 L-8 8 -16 8 Q-19.3 8 -21.65 5.65 -24 3.3 -24 0 -24 -3.3 -21.65 -5.65 -19.3 -8 -16 -8 L-8 -8 -8 -16 Q-8 -19.3 -5.65 -21.65 -3.3 -24 0 -24 M-19.5 -3.5 Q-21 -2.05 -21 0 -21 2.05 -19.5 3.55 -18.05 5 -16 5 L-5 5 -5 16 Q-5 18.05 -3.5 19.55 -2.05 21 0 21 2.05 21 3.55 19.55 5 18.05 5 16 L5 5 16 5 Q18.05 5 19.55 3.55 21 2.05 21 0 21 -2.05 19.55 -3.5 18.05 -5 16 -5 L5 -5 5 -16 Q5 -18.05 3.55 -19.5 2.05 -21 0 -21 -2.05 -21 -3.5 -19.5 -5 -18.05 -5 -16 L-5 -5 -16 -5 Q-18.05 -5 -19.5 -3.5"/>
  </g>
</svg>