<svg width="64" height="64" xmlns="http://www.w3.org/2000/svg" xmlns:xlink="http://www.w3.org/1999/xlink">
  <defs/>
  <g>
    <path stroke="none" fill="#FFFFFF" d="M9 4 Q9 6.45 7.25 8.2 L7.2 8.25 Q5.45 10 3 10 L-7 10 -7 -10 3 -10 Q5.45 -10 7.2 -8.25 L7.25 -8.2 Q9 -6.45 9 -4 9 -1.7 7.5 0 9 1.7 9 4 M5 -4 Q5 -4.8 4.45 -5.35 L4.35 -5.45 Q3.8 -6 3 -6 L-3 -6 -3 -2 3 -2 Q3.8 -2 4.4 -2.6 L4.45 -2.6 Q5 -3.15 5 -4 M24 0 Q24 10 16.95 16.95 10 24 0 24 -9.95 24 -17 16.95 -24 10 -24 0 -24 -9.95 -17 -17 -9.95 -24 0 -24 10 -24 16.95 -17 24 -9.95 24 0 M5 4 Q5 3.15 4.45 2.6 L4.4 2.6 Q3.8 2 3 2 L-3 2 -3 6 3 6 Q3.8 6 4.35 5.45 L4.45 5.35 Q5 4.8 5 4 M14.85 -14.85 Q8.75 -21 0 -21 -8.7 -21 -14.85 -14.85 -21 -8.7 -21 0 -21 8.75 -14.85 14.85 -8.7 21 0 21 8.75 21 14.85 14.85 21 8.75 21 0 21 -8.7 14.85 -14.85"/>
  </g>
</svg>