<svg width="64" height="64" xmlns="http://www.w3.org/2000/svg" xmlns:xlink="http://www.w3.org/1999/xlink">
  <defs/>
  <g>
    <path stroke="none" fill="#FFFFFF" d="M12.2 -22 L13.6 -21.8 Q16 -21.1 16 -18 L16 -14 24 -14 24 -6 20 -6 20 2.25 Q19.9 5.15 17.6 5.8 L16.35 6 16 6 16 18 Q16 21.1 13.6 21.8 L12.2 22 -20 22 Q-24 22 -24 18 L-24 -18 Q-24 -22 -20 -22 L12.2 -22 M12.2 -19 L-20 -19 Q-21 -19 -21 -18 L-21 18 Q-21 19 -20 19 L12.2 19 12.65 18.95 12.75 18.95 13 18 13 -18.05 12.8 -18.85 12.75 -18.9 12.65 -18.95 12.2 -19 M2 9 Q2 10.3 1.1 11.1 0.3 12 -1 12 -2.25 12 -3.15 11.1 -4 10.3 -4 9 -4 7.75 -3.15 6.85 -2.25 6 -1 6 0.3 6 1.1 6.85 2 7.75 2 9 M10 9 Q10 10.3 9.1 11.1 8.3 12 7 12 5.75 12 4.85 11.1 4 10.3 4 9 4 7.75 4.85 6.85 5.75 6 7 6 8.3 6 9.1 6.85 10 7.75 10 9 M10 -16 L10 2 -18 2 -18 -16 10 -16 M-12 4 Q-11.2 4 -10.6 4.6 -10 5.2 -10 6 L-10 8 -8 8 Q-7.2 8 -6.6 8.6 -6 9.2 -6 10 -6 10.8 -6.6 11.4 -7.2 12 -8 12 L-10 12 -10 14 Q-10 14.8 -10.6 15.4 -11.2 16 -12 16 -12.8 16 -13.4 15.4 -14 14.8 -14 14 L-14 12 -16 12 Q-16.8 12 -17.4 11.4 -18 10.8 -18 10 -18 9.2 -17.4 8.6 -16.8 8 -16 8 L-14 8 -14 6 Q-14 5.2 -13.4 4.6 -12.8 4 -12 4"/>
  </g>
</svg>