<svg width="64" height="64" xmlns="http://www.w3.org/2000/svg" xmlns:xlink="http://www.w3.org/1999/xlink">
  <defs/>
  <g>
    <path stroke="none" fill="#FFFFFF" d="M-14 6 Q-14.8 6 -15.4 6.6 -16 7.2 -16 8 L-16 10 -18 10 Q-18.8 10 -19.4 10.6 -20 11.2 -20 12 -20 12.8 -19.4 13.4 -18.8 14 -18 14 L-16 14 -16 16 Q-16 16.8 -15.4 17.4 -14.8 18 -14 18 -13.2 18 -12.6 17.4 -12 16.8 -12 16 L-12 14 -10 14 Q-9.2 14 -8.6 13.4 -8 12.8 -8 12 -8 11.2 -8.6 10.6 -9.2 10 -10 10 L-12 10 -12 8 Q-12 7.2 -12.6 6.6 -13.2 6 -14 6 M12 -18 L-20 -18 -20 2 12 2 12 -18 M10 9 Q10 7.75 9.1 6.85 8.3 6 7 6 5.75 6 4.85 6.85 4 7.75 4 9 4 10.3 4.85 11.1 5.75 12 7 12 8.3 12 9.1 11.1 10 10.3 10 9 M2 9 Q2 7.75 1.1 6.85 0.3 6 -1 6 -2.25 6 -3.15 6.85 -4 7.75 -4 9 -4 10.3 -3.15 11.1 -2.25 12 -1 12 0.3 12 1.1 11.1 2 10.3 2 9 M12.2 -22 L13.6 -21.8 Q16 -21.1 16 -18 L16 -14 24 -14 24 -6 20 -6 20 2.25 Q19.9 5.15 17.6 5.8 L16.35 6 16 6 16 18 Q16 21.1 13.6 21.8 L12.2 22 -20 22 Q-24 22 -24 18 L-24 -18 Q-24 -22 -20 -22 L12.2 -22"/>
  </g>
</svg>