<svg width="64" height="64" xmlns="http://www.w3.org/2000/svg" xmlns:xlink="http://www.w3.org/1999/xlink">
  <defs/>
  <g>
    <path stroke="none" fill="#FFFFFF" d="M14.85 -14.85 Q8.75 -21 0 -21 -8.7 -21 -14.85 -14.85 -21 -8.7 -21 0 -21 8.75 -14.85 14.85 -8.7 21 0 21 8.75 21 14.85 14.85 21 8.75 21 0 21 -8.7 14.85 -14.85 M24 0 Q24 10 16.95 16.95 10 24 0 24 -9.95 24 -17 16.95 -24 10 -24 0 -24 -9.95 -17 -17 -9.95 -24 0 -24 10 -24 16.95 -17 24 -9.95 24 0 M0 -5 L-2.8 2 2.8 2 0 -5 M6 10 L4.4 6 -4.4 6 -6 10 -10 10 -2 -10 2 -10 10 10 6 10"/>
  </g>
</svg>