<svg width="64" height="64" xmlns="http://www.w3.org/2000/svg" xmlns:xlink="http://www.w3.org/1999/xlink">
  <defs/>
  <g>
    <path stroke="none" fill="#FFFFFF" d="M11 0 Q11 4.55 7.75 7.75 4.55 11 0 11 -4.55 11 -7.8 7.75 -11 4.55 -11 0 -11 -4.6 -7.8 -7.8 -4.55 -11 0 -11 4.55 -11 7.75 -7.8 11 -4.6 11 0 M0 -21 Q-8.7 -21 -14.85 -14.85 -21 -8.7 -21 0 -21 8.75 -14.85 14.85 -8.7 21 0 21 8.75 21 14.85 14.85 21 8.75 21 0 21 -8.7 14.85 -14.85 8.75 -21 0 -21 M24 0 Q24 10 16.95 16.95 10 24 0 24 -9.95 24 -17 16.95 -24 10 -24 0 -24 -9.95 -17 -17 -9.95 -24 0 -24 10 -24 16.95 -17 24 -9.95 24 0"/>
  </g>
</svg>