<svg width="64" height="64" xmlns="http://www.w3.org/2000/svg" xmlns:xlink="http://www.w3.org/1999/xlink">
  <defs/>
  <g>
    <path stroke="none" fill="#FFFFFF" d="M-3 -17 L9 -17 Q13 -17 13 -13 L13 -7 Q13 -3.1 9.2 -3 L-3 -3 Q-6.55 -3 -6.95 -6.1 L-7 -7 -7 -13 Q-7 -17 -3 -17 M-10 -7 Q-10 -3.45 -8.2 -1.7 L-12.15 12.1 Q-12.6 13.7 -14.05 14.5 -15.5 15.3 -17.1 14.85 -18.7 14.4 -19.5 12.95 -20.3 11.5 -19.85 9.9 L-13.85 -11.1 Q-13.4 -12.7 -11.95 -13.5 -11 -14.05 -9.95 -14 L-10 -13 -10 -7 M0 18 L-6 12 -6 10 -1.85 10 Q-1.3 7.15 0.85 4.95 3.8 2 8 2 12.2 2 15.05 4.95 18 7.85 18 12 18 16.2 15.05 19.15 12.2 22 8 22 7.15 22 6.55 21.45 6 20.85 6 20 6 19.15 6.55 18.6 7.15 18 8 18 10.5 18 12.2 16.3 14 14.5 14 12 14 9.55 12.2 7.8 L12.2 7.75 Q10.5 6 8 6 5.5 6 3.7 7.8 L3.7 7.75 Q2.75 8.75 2.3 10 L6 10 6 12 0 18 M-14 11 Q-14 10.15 -14.6 9.55 -15.15 9 -16 9 -16.85 9 -17.45 9.55 -18 10.15 -18 11 -18 11.85 -17.45 12.4 -16.85 13 -16 13 -15.15 13 -14.6 12.4 -14 11.85 -14 11"/>
  </g>
</svg>