<svg width="64" height="64" xmlns="http://www.w3.org/2000/svg" xmlns:xlink="http://www.w3.org/1999/xlink">
  <defs/>
  <g>
    <path stroke="none" fill="#FFFFFF" d="M8 8 L8 16 Q8 19.3 5.65 21.65 3.3 24 0 24 -3.3 24 -5.65 21.65 -8 19.3 -8 16 L-8 8 -16 8 Q-19.3 8 -21.65 5.65 -24 3.3 -24 0 -24 -3.3 -21.65 -5.65 -19.3 -8 -16 -8 L-8 -8 -8 -16 Q-8 -19.3 -5.65 -21.65 -3.3 -24 0 -24 3.3 -24 5.65 -21.65 8 -19.3 8 -16 L8 -8 8 8"/>
    <path stroke="none" fill="#E73246" d="M8 8 L8 -8 16 -8 Q19.3 -8 21.65 -5.65 24 -3.3 24 0 24 3.3 21.65 5.65 19.3 8 16 8 L8 8"/>
  </g>
</svg>