<svg width="64" height="64" xmlns="http://www.w3.org/2000/svg" xmlns:xlink="http://www.w3.org/1999/xlink">
  <defs/>
  <g>
    <path stroke="none" fill="#FFFFFF" d="M34 16 L44 16 Q45.75 16 46.9 16.6 49 17.75 49 21 L49 31 38 31 38 25 Q38 22.5 36.25 20.75 35.25 19.75 34 19.35 L34 16 M15 34 L26.1 34 Q26.35 35.85 27.75 37.25 29.5 39 32 39 34.5 39 36.25 37.25 37.65 35.85 37.95 34 L49 34 49 43.5 Q48.8 50.25 44 55 39.25 59.8 32.5 60 L31.5 60 Q24.75 59.8 19.95 55 15.2 50.25 15 43.5 L15 34 M20 16 L30 16 30 19.35 Q28.75 19.75 27.75 20.75 26 22.5 26 25 L26 31 15 31 15 21 Q15 17.75 17.15 16.6 18.25 16 20 16"/>
    <path stroke="none" fill="#E73246" d="M29.9 22.9 Q30.75 22 32 22 33.25 22 34.15 22.9 35 23.75 35 25 L35 33 34.85 34 34.15 35.15 Q33.25 36 32 36 30.75 36 29.9 35.15 29.4 34.65 29.2 34 L29 33 29 25 Q29 23.75 29.9 22.9"/>
    <path stroke="none" fill="#FFFFFF" d="M30.85 50.5 L24.45 43.85 Q24 43.35 24 42.65 24 41.95 24.45 41.5 24.9 41 25.6 41 L38.4 41 Q39.05 41 39.55 41.5 40 41.95 40 42.65 40 43.35 39.55 43.85 L33.15 50.5 Q32.65 51 32 51 31.3 51 30.85 50.5"/>
    <path stroke="none" fill="#FFFFFF" fill-opacity="0" d="M30.85 50.5 Q31.3 51 32 51 32.65 51 33.15 50.5 L39.55 43.85 Q40 43.35 40 42.65 40 41.95 39.55 41.5 39.05 41 38.4 41 L25.6 41 Q24.9 41 24.45 41.5 24 41.95 24 42.65 24 43.35 24.45 43.85 L30.85 50.5 M35.3 52.65 Q33.85 54.05 32 54 30 54 28.7 52.6 L22.3 45.95 22.25 45.85 Q21 44.5 21 42.65 21 40.75 22.25 39.5 23.55 38 25.6 38 L38.4 38 Q40.25 37.95 41.7 39.4 43 40.65 43 42.65 43 44.5 41.8 45.85 L41.7 45.95 35.3 52.6 35.3 52.65"/>
    <path stroke="none" fill="#FFFFFF" d="M30.85 7.5 Q31.3 7 32 7 32.65 7 33.15 7.5 L39.55 14.15 Q40 14.65 40 15.35 40 16.05 39.55 16.5 39.05 17 38.4 17 L25.6 17 Q24.9 17 24.45 16.5 24 16.05 24 15.35 24 14.65 24.45 14.15 L30.85 7.5"/>
    <path stroke="none" fill="#FFFFFF" fill-opacity="0" d="M35.3 5.35 L35.3 5.4 41.7 12.05 41.8 12.15 Q43 13.5 43 15.35 43 17.35 41.7 18.6 40.25 20.05 38.4 20 L25.6 20 Q23.55 20 22.25 18.5 21 17.25 21 15.35 21 13.5 22.25 12.15 L22.3 12.05 28.7 5.4 Q30 4 32 4 33.85 3.95 35.3 5.35 M30.85 7.5 L24.45 14.15 Q24 14.65 24 15.35 24 16.05 24.45 16.5 24.9 17 25.6 17 L38.4 17 Q39.05 17 39.55 16.5 40 16.05 40 15.35 40 14.65 39.55 14.15 L33.15 7.5 Q32.65 7 32 7 31.3 7 30.85 7.5"/>
  </g>
</svg>