<svg width="64" height="64" xmlns="http://www.w3.org/2000/svg" xmlns:xlink="http://www.w3.org/1999/xlink">
  <defs/>
  <g>
    <path stroke="none" fill="#FFFFFF" d="M42 17.5 L34 17.5 34 20.85 Q35.25 21.25 36.25 22.25 38 24 38 26.5 L38 32.5 47 32.5 47 22.5 Q47 17.5 42 17.5 M21.5 14.5 L42.5 14.5 Q50 14.75 50 22.5 L50 42.5 Q50 49.1 45.3 53.8 40.6 58.5 34 58.5 L30 58.5 Q23.4 58.5 18.7 53.8 14 49.1 14 42.5 L14 22.5 Q14 14.75 21.5 14.5 M17 22.5 L17 32.5 26 32.5 26 26.5 Q26 24 27.75 22.25 28.75 21.25 30 20.85 L30 17.5 22 17.5 Q17 17.5 17 22.5 M47 42.5 L47 35.5 37.95 35.5 Q37.65 37.35 36.25 38.75 34.5 40.5 32 40.5 29.5 40.5 27.75 38.75 26.35 37.35 26.1 35.5 L17 35.5 17 42.5 Q17 47.85 20.85 51.7 24.65 55.5 30 55.5 L34 55.5 Q39.35 55.5 43.2 51.7 47 47.85 47 42.5"/>
    <path stroke="none" fill="#FFFFFF" d="M30.85 53 L24.45 46.35 Q24 45.85 24 45.15 24 44.45 24.45 44 24.9 43.5 25.6 43.5 L38.4 43.5 Q39.05 43.5 39.55 44 40 44.45 40 45.15 40 45.85 39.55 46.35 L33.15 53 Q32.65 53.5 32 53.5 31.3 53.5 30.85 53"/>
    <path stroke="none" fill="#FFFFFF" fill-opacity="0" d="M30.85 53 Q31.3 53.5 32 53.5 32.65 53.5 33.15 53 L39.55 46.35 Q40 45.85 40 45.15 40 44.45 39.55 44 39.05 43.5 38.4 43.5 L25.6 43.5 Q24.9 43.5 24.45 44 24 44.45 24 45.15 24 45.85 24.45 46.35 L30.85 53 M35.3 55.15 Q33.85 56.55 32 56.5 30 56.5 28.7 55.1 L22.3 48.45 22.25 48.35 Q21 47 21 45.15 21 43.25 22.25 42 23.55 40.5 25.6 40.5 L38.4 40.5 Q40.25 40.45 41.7 41.9 43 43.15 43 45.15 43 47 41.8 48.35 L41.7 48.45 35.3 55.1 35.3 55.15"/>
    <path stroke="none" fill="#FFFFFF" d="M30.85 9 Q31.3 8.5 32 8.5 32.65 8.5 33.15 9 L39.55 15.65 Q40 16.15 40 16.85 40 17.55 39.55 18 39.05 18.5 38.4 18.5 L25.6 18.5 Q24.9 18.5 24.45 18 24 17.55 24 16.85 24 16.15 24.45 15.65 L30.85 9"/>
    <path stroke="none" fill="#FFFFFF" fill-opacity="0" d="M30.85 9 L24.45 15.65 Q24 16.15 24 16.85 24 17.55 24.45 18 24.9 18.5 25.6 18.5 L38.4 18.5 Q39.05 18.5 39.55 18 40 17.55 40 16.85 40 16.15 39.55 15.65 L33.15 9 Q32.65 8.5 32 8.5 31.3 8.5 30.85 9 M35.3 6.85 L35.3 6.9 41.7 13.55 41.8 13.65 Q43 15 43 16.85 43 18.85 41.7 20.1 40.25 21.55 38.4 21.5 L25.6 21.5 Q23.55 21.5 22.25 20 21 18.75 21 16.85 21 15 22.25 13.65 L22.3 13.55 28.7 6.9 Q30 5.5 32 5.5 33.85 5.45 35.3 6.85"/>
  </g>
</svg>